<svg xmlns="http://www.w3.org/2000/svg" xmlns:xlink="http://www.w3.org/1999/xlink" width="500" zoomAndPan="magnify" viewBox="0 0 375 374.999991" height="500" preserveAspectRatio="xMidYMid meet" version="1.0"><defs><clipPath id="6cc435c9c1"><path d="M 0 106.703125 L 375 106.703125 L 375 267.953125 L 0 267.953125 Z M 0 106.703125 " clip-rule="nonzero"/></clipPath></defs><rect x="-37.5" width="450" fill="#ffffff" y="-37.499999" height="449.999989" fill-opacity="1"/><rect x="-37.5" width="450" fill="#ffffff" y="-37.499999" height="449.999989" fill-opacity="1"/><g clip-path="url(#6cc435c9c1)"><path fill="#018bb6" d="M 319.417969 210.132812 L 319.613281 209.953125 L 316.703125 207.277344 L 299.945312 201.996094 L 266.792969 148.992188 L 239.46875 160.816406 L 194.957031 106.578125 L 121.667969 202.753906 L 95.097656 169.523438 L 0 268.507812 L 66.878906 208.382812 L 71.832031 216.441406 L 93.085938 181.984375 L 93.085938 207.644531 L 102.609375 216.441406 L 88.683594 225.242188 L 75.496094 253.105469 L 90.882812 236.976562 L 102.609375 264.101562 L 102.609375 243.578125 L 109.9375 242.839844 L 109.9375 225.242188 L 142.1875 215.710938 L 131.195312 202.753906 L 193.5 129.925781 L 183.96875 160.816406 L 197.894531 169.523438 L 183.238281 172.449219 L 186.910156 177.582031 L 176.640625 179.789062 L 166.375 199.21875 L 177.367188 214.976562 L 170.777344 213.515625 L 161.246094 223.046875 L 137.066406 261.175781 L 156.113281 244.304688 C 156.113281 244.304688 155.011719 259.679688 154.394531 262.847656 C 156.429688 260.257812 170.777344 250.414062 170.777344 250.414062 L 186.910156 262.878906 L 195.941406 234.78125 L 204 249.195312 L 200.828125 226.710938 L 209.382812 212.292969 C 209.382812 212.292969 227.820312 257.949219 228.1875 258.726562 C 227.945312 257.996094 232.105469 222.074219 232.105469 222.074219 L 244.566406 243.082031 L 240.648438 225.484375 L 257.753906 234.28125 L 248.472656 211.074219 L 263.371094 167.558594 L 298.0625 214.003906 L 300.503906 241.867188 L 304.363281 225.578125 L 305.414062 227.746094 C 306.273438 235.722656 307.617188 251.609375 304.910156 251.609375 C 302.273438 251.609375 293.296875 261.925781 288.851562 266.542969 C 295.085938 263.15625 310.628906 257.835938 310.628906 257.835938 L 316.414062 250.429688 L 321.566406 243.839844 L 324.097656 240.605469 L 326.210938 237.894531 L 375 268.507812 L 319.417969 210.132812 " fill-opacity="1" fill-rule="nonzero"/></g></svg>