<svg xmlns="http://www.w3.org/2000/svg" xmlns:xlink="http://www.w3.org/1999/xlink" width="500" zoomAndPan="magnify" viewBox="0 0 375 374.999991" height="500" preserveAspectRatio="xMidYMid meet" version="1.0"><defs><clipPath id="3ed73b1d4b"><path d="M 187.5 0 C 83.945312 0 0 83.945312 0 187.5 C 0 291.054688 83.945312 375 187.5 375 C 291.054688 375 375 291.054688 375 187.5 C 375 83.945312 291.054688 0 187.5 0 Z M 187.5 0 " clip-rule="nonzero"/></clipPath><clipPath id="6e7036d371"><path d="M 14.074219 112.769531 L 360.574219 112.769531 L 360.574219 261.960938 L 14.074219 261.960938 Z M 14.074219 112.769531 " clip-rule="nonzero"/></clipPath></defs><rect x="-37.5" width="450" fill="#ffffff" y="-37.499999" height="449.999989" fill-opacity="1"/><rect x="-37.5" width="450" fill="#ffffff" y="-37.499999" height="449.999989" fill-opacity="1"/><g clip-path="url(#3ed73b1d4b)"><rect x="-37.5" width="450" fill="#51a7c6" y="-37.499999" height="449.999989" fill-opacity="1"/></g><g clip-path="url(#6e7036d371)"><path fill="#ffffff" d="M 309.105469 208.171875 L 309.285156 208.007812 L 306.601562 205.539062 L 291.132812 200.671875 L 260.523438 151.8125 L 235.300781 162.714844 L 194.210938 112.71875 L 126.550781 201.371094 L 102.019531 170.738281 L 14.226562 261.976562 L 75.96875 206.558594 L 80.542969 213.988281 L 100.164062 182.226562 L 100.164062 205.878906 L 108.957031 213.988281 L 96.101562 222.097656 L 83.925781 247.78125 L 98.128906 232.914062 L 108.957031 257.917969 L 108.957031 239 L 115.722656 238.316406 L 115.722656 222.097656 L 145.492188 213.3125 L 135.34375 201.371094 L 192.863281 134.238281 L 184.0625 162.714844 L 196.921875 170.738281 L 183.390625 173.433594 L 186.78125 178.167969 L 177.296875 180.203125 L 167.824219 198.113281 L 177.96875 212.636719 L 171.886719 211.289062 L 163.085938 220.074219 L 140.761719 255.21875 L 158.347656 239.671875 C 158.347656 239.671875 157.332031 253.839844 156.761719 256.761719 C 158.640625 254.375 171.886719 245.300781 171.886719 245.300781 L 186.78125 256.789062 L 195.117188 230.890625 L 202.554688 244.179688 L 199.628906 223.453125 L 207.523438 210.160156 C 207.523438 210.160156 224.546875 252.246094 224.886719 252.960938 C 224.660156 252.289062 228.5 219.175781 228.5 219.175781 L 240.003906 238.542969 L 236.386719 222.320312 L 252.179688 230.429688 L 243.609375 209.039062 L 257.367188 168.929688 L 289.394531 211.738281 L 291.648438 237.421875 L 295.210938 222.40625 L 296.175781 224.40625 C 296.972656 231.757812 298.214844 246.402344 295.714844 246.402344 C 293.277344 246.402344 284.992188 255.910156 280.886719 260.167969 C 286.644531 257.046875 300.996094 252.140625 300.996094 252.140625 L 306.335938 245.316406 L 311.089844 239.238281 L 313.425781 236.257812 L 315.378906 233.757812 L 360.421875 261.976562 L 309.105469 208.171875 " fill-opacity="1" fill-rule="nonzero"/></g></svg>